<?xml version="1.0" encoding="utf-8"?>
<!-- Generator: Adobe Illustrator 23.0.2, SVG Export Plug-In . SVG Version: 6.00 Build 0)  -->
<svg version="1.1" id="Mich" xmlns="http://www.w3.org/2000/svg" xmlns:xlink="http://www.w3.org/1999/xlink" x="0px" y="0px"
	 viewBox="0 0 595.3 295.4" style="enable-background:new 0 0 595.3 295.4;" xml:space="preserve">
<style type="text/css">
	.st0{fill:transparent;
			-webkit-animation: texto 5s forwards 7s;
			-moz-animation: texto 5s forwards 7s;
			-o-animation: texto 5s forwards 7s;
			animation: texto 5s forwards 7s;
	}
	.st1{fill:none;
	stroke:#5B627D;
	stroke-width:2;stroke-linecap:round;
	stroke-linejoin:round;
	stroke-dasharray: 3000;
	stroke-dashoffset: 0;
	stroke-miterlimit:10;
	   -webkit-animation: animacion 15s forwards;
		-moz-animation: animacion 15s forwards;
		-o-animation: animacion 15s forwards;
		animation: animacion 15s forwards;
	}
	@-webkit-keyframes animacion {
			0% {
				stroke-dashoffset: 3000;
			}
			90% {
				stroke: #5b627d;
			}

			100% {
				stroke-dashoffset: 0;
				stroke: transparent;
			}
		}

		@-keyframes animacion {
			0% {
				stroke-dashoffset: 3000;
			}
			90% {
				stroke: #000000;
			}

			100% {
				stroke-dashoffset: 0;
				stroke: transparent;
			}
		}
		@-webkit-keyframes texto {
			from {
				fill: transparent;
			}

			to {
				fill: #5B627D;
			}
		}

		@-keyframes texto {
			from {
				fill: transparent;
			}

			to {
				fill: #5B627D;
			}
		}
</style>
<path id="relleno" class="st0" d="M316.8,187.8c-1.9,3.1-4.3,5.8-6.5,8.6c-2.9,3.5-5.8,7-9.1,10.1c-1.1,0.8-2,1.8-3.1,2.5
	c-3.4,2.5-6.9,1.9-10.5,0.4c-1.8-0.8-3.3-1.9-4.3-3.5c-1.4-2-1.4-2-3.2-0.3c-0.9,0.8-1.7,1.8-2.9,2.3c-1.9,1-3.5,2.4-5.6,3
	c-1.7,0.5-3.4,0.8-5.2,0.9c-4.5,0.4-8.5-0.8-12.4-3c-1.1-0.6-2.1-1.4-3.2-2c-3.2-2.3-5.4-5.5-7.3-8.9c-1.4-2.8-2.5-5.7-3.4-8.7
	c-0.1-0.2-0.1-0.4-0.2-0.6c0-0.5,0-1-0.3-1.5c-0.2-0.9-0.3-1.9-0.5-2.9c-0.6-4.9-0.6-9.7-0.1-14.6c0.9-7.8,2.5-15.6,4.5-23.2
	c1.2-4.7,2.8-9.3,4.1-14c0.2-0.7,0.3-1.4,0.3-2.1c0-1.2-0.5-1.5-1.6-1c-0.6,0.3-1,0.8-1.6,1.2c-5.1,5.2-9.6,11-14.1,16.7
	c-8.2,10.6-15.8,21.5-23.4,32.4c-5.7,8.3-11.5,16.6-17.3,24.8c-0.5,0.7-1,0.8-1.9,0.6c-2.1-0.5-4-1.3-5.7-2.5
	c-3.8-2.7-5.4-6.4-4.8-11c0.4-3,1.4-5.7,2.4-8.5c1.2-3.6,2.7-7,4.1-10.5c0.5-1.4,1.2-2.7,1.7-4.1l0,0c1.7-3.7,3.2-7.5,4.8-11.2
	c2.2-5.1,4.4-10.2,6.7-15.3c1.2-2.7,2.4-5.4,3.6-8.1c1.5-2.7,2.6-5.6,3.9-8.4c1.5-3.4,3.1-6.8,4.6-10.3c2.3-5.2,4.6-10.4,6.8-15.7
	c1.7-4.1,3.4-8.3,4.9-12.5c0.8-2.1,1.6-4.2,2-6.3c0.1-0.7,0.5-1.5-0.3-2c-0.7-0.5-1.3-0.1-1.9,0.3c-0.3,0.2-0.7,0.3-0.9,0.6
	c-4.6,3.7-8.2,8.3-11.8,12.8c-2.4,3-4.8,6.1-7.1,9.2c-3.2,4-6.1,8.1-9,12.3c-4.8,6.9-9.7,13.7-14.4,20.7c-6.5,9.6-12.9,19.3-19.3,29
	c-9.6,14.5-19,29-28.2,43.7c-6.9,10.9-13.9,21.8-20.9,32.7c0,0.1-0.1,0.1-0.2,0.2c-0.5,0.5-0.8,1.2-1.1,1.7
	c-0.9,1.4-1.5,1.4-2.9,0.6c-1.9-1.2-3.7-2.7-5.5-3.9c-0.5-0.3-0.9-0.6-1.4-0.9l0,0c-1-0.9-2.2-1.5-3.1-2.5c-0.3-0.3-0.7-0.7-1-1
	c-2.1-2.5-1.9-5-0.2-7.6c0.6-1,1.3-1.9,1.8-2.9c2.9-4.3,6.4-8.1,9.6-12.1c6.6-8.2,12.9-16.7,19-25.3c4.6-6.6,8.9-13.4,13.1-20.3
	c1.3-2.1,2.4-4.2,3.6-6.3c0.7-1,1.3-2.1,1.9-3.2c0.5-1,1-2,1.5-3c1.2-2.5,2.5-5,3.7-7.5c2.4-4.8,4.4-9.7,6.6-14.6
	c1.1-2.2,1.8-4.5,2.7-6.8c1.1-2.9,2-5.8,3-8.8c0.6-1.7,1.2-3.5,1.7-5.3c1.3-4.6,2.5-9.3,3.5-14c0.3-1.3,0.6-2.5,0.7-3.8
	c0.4-2,0.5-4,1-5.9c0.4-0.8,0.2-1.7,0.3-2.5c0.4-2.2,0.6-4.5,0.8-6.7c0.1-1.5,0.2-3,0.3-4.4c0.2-1.9-0.6-3.2-2.3-4
	c-3.2-0.8-6.4-0.3-9.6,0.1c-1.9,0.2-3.8,0.9-5.7,1.3c-1.7,0.6-3.5,1.3-5.1,2c-1.8,0.8-3.6,1.7-5.4,2.7c-1.5,0.7-2.8,1.8-4.2,2.5
	c-4.2,2.6-8.1,5.4-12,8.3c-0.4,0.3-0.7,0.5-1.1,0.8c-3.3,2.5-6.5,5.1-9.7,7.8c-8,6.7-15.3,14.2-22.7,21.6c-1.2,1.2-2.3,2.5-3.4,3.8
	c-3.7,4.1-7.5,8.3-11,12.6s-6.9,8.6-10.1,13.1c-0.2,0.3-0.5,0.6-0.7,0.9c-2.7,3.5-5,7.3-7.3,11c-1,1.6-1.9,3.4-3,5
	c-1.2,2.5-2.6,4.9-3.6,7.5c-1,2.3-1.9,4.6-2.8,6.9c-0.3,1.1-0.7,2.1-1,3.2c-0.3,0.7-0.5,1.5-0.5,2.2c-0.1,1.2-0.5,2.4-0.5,3.7
	c-0.2,4,0.4,7.8,3.5,10.9c1.6,1.8,3.6,2.2,5.9,1.7c0.4-0.1,0.8-0.2,1.2-0.3c1.2-0.3,2,0.2,2.2,1.4c0.3,1.4-0.1,2.7-1,3.8
	c-0.8,1.2-1.9,1.3-3.2,1c-6.8-1.6-11.5-5.7-14-12.3c-1.7-4.5-2.7-9.2-3.6-14c-0.7-3.6-0.4-7.3-0.3-11c0.1-2.2,1-4.3,2-6.3
	c0-0.3,0.1-0.5,0.1-0.8c0.7-1.6,1.5-3.1,2.1-4.7c0.2-0.3,0.4-0.7,0.6-1c0.5-1.2,1.3-2.1,1.8-3.3l0,0c0.7-0.8,1-1.8,1.6-2.6
	c1.1-1.7,2.1-3.5,3.2-5.2c5.5-8.4,11.5-16.3,18-23.9c4.7-5.5,9.5-10.9,14.7-16c2.1-2.2,4.2-4.4,6.5-6.4c1.5-1.6,3-3.1,4.8-4.5
	c1-0.6,1.6-1.6,2.5-2.3c2.6-2.5,5.3-4.7,8.1-7c3.1-2.2,6-4.8,9.1-7.1c0.8-0.4,1.4-1,2.1-1.6c4.6-3.6,9.7-6.6,14.8-9.5
	c3.3-1.7,6.6-3.4,10-4.8c2.1-0.9,4.3-1.5,6.5-2.2c0.6-0.1,1.3,0,1.9-0.2c0.1,0,0.3-0.1,0.4-0.1c2.6-0.9,5.2-0.3,7.8-0.3
	c3.6,0.8,6.7,2.4,9.6,4.6c1.1,1,2.2,2.1,3.2,3.2c1.1,1.4,2.3,2.8,3.1,4.5c2.3,4.3,3.8,8.9,4.7,13.7c0.6,3.1,0.9,6.2,1.2,9.3
	c0.2,2-0.3,3.9-0.8,5.8c-2.4,7.6-5.6,14.9-8.8,22.2c-2.5,5.7-4.9,11.5-7.7,17.1c-1.5,2.4-2.5,5.1-3.7,7.6c-1.5,3.2-3.1,6.3-4.7,9.5
	c-0.1,0.3-0.2,0.5-0.3,0.8c-0.2,0.5-0.3,1-0.6,1.5c-0.2,0.3-0.4,0.5-0.6,0.7c-0.5,0.8-0.8,1.6-1.3,2.3c-0.2,0.3-0.3,0.5-0.6,0.8
	c-0.4,0.5-0.8,1.1-0.7,1.9c0.5,0.1,0.6-0.3,0.8-0.5c0.3-0.5,0.7-0.8,0.9-1.4c0.1-0.2,0.2-0.5,0.3-0.7c0.4-0.6,0.9-1.2,1.1-1.9
	c0.3-0.9,1.1-1.4,1.7-2.1c4.3-6.3,8.6-12.7,13-19c6.7-9.7,13.5-19.4,20.5-28.9c7.8-10.6,15.6-21.2,24.4-31c2.7-3.1,5.5-6.1,8.8-8.5
	c3.2-2.3,6.6-2.2,9.6,0.4c2,1.6,3.4,3.7,4.6,5.9c0.7,1.3,0.8,2.7,0.6,4.1c-0.5,4.2-1.8,8.2-3.1,12.2c-2.6,8.1-5.6,16.1-8.7,24
	c-1.8,4.7-3.8,9.3-5.8,13.9c-0.2,0.6-0.4,1.1-0.6,1.7c-0.7,1.8-1.6,3.6-2.3,5.4c-2.3,5.7-5,11.3-7.3,17.1c-2.5,6-5.2,11.9-7.9,17.8
	c-1.7,3.8-3.4,7.5-5.1,11.3c-0.2,0.5-0.5,0.9-0.7,1.3c-0.3,0.2-0.5,0.6-0.6,0.9c-0.2,0.5-0.7,1.1-0.1,1.4c0.4,0.2,1-0.4,1.3-0.8
	c0.2-0.3,0.5-0.6,0.7-1c3.6-4.9,7.3-9.7,10.9-14.6c7.3-9.9,14.6-19.8,22.2-29.5c5.4-6.9,10.9-13.7,17-19.9c1.6-1.6,3.3-3.3,5.2-4.6
	c1.3-0.9,2.6-1.8,4.1-2.3c0.7-0.2,1.4-0.3,2,0c5.8,2.8,9.3,6.7,9.2,13.9c0,2.4-0.6,4.8-1.2,7.1c-1.4,5.1-3.1,10.2-5,15.1
	c-1.1,3.5-2.4,6.9-3.5,10.3c-0.9,2.7-1.9,5.4-2.7,8.1c-1.9,6.9-3.4,13.9-2.8,21.1c0.3,4,1.2,7.9,3.9,11.1c1.2,1.4,2.6,2.3,4.2,3.2
	c0.3,0.2,0.6,0.4,0.8,0.5c3.9,2.6,8.1,3.8,12.8,2.3c1-0.3,2-0.8,2.8-1.4c2.1-1.5,4.1-3.1,5.6-5.1c0.4-0.6,0.9-1.1,0.8-1.9
	c-0.6-4.3,0.6-8.3,2-12.2c0.8-2.3,1.7-4.5,2.6-6.7c2.2-5.6,4.8-11,7.3-16.5c0.5-1.1,1-2.2,1.9-3.1c1.1-1.1,2.5-1.4,3.9-0.7
	c1.5,0.7,3,1.5,4.5,2.2c0.8,0.4,1.4,0.9,2,1.5c1.3,1.4,1.3,1.7,0.3,3.3c-3.5,5.4-6.2,11.2-9.1,17c-2.4,4.8-4.5,9.7-6.3,14.7
	c-0.5,1.6-1,3.2-0.4,4.9s2,2.2,3.5,1.4c2.3-1.3,4-3.3,5.9-5.1c10.2-10.4,19.8-21.3,28.6-33c3-4,5.4-8.4,8.4-12.3
	c3.6-4.7,7.5-9.2,12.5-12.7c2.4-1.6,4.9-3,7.9-2.8c2.4,0.2,4.5,1.3,6.5,2.6c2.5,1.7,4.6,3.8,6.3,6.3c1.5,2.3,1.9,4.7,1.3,7.3
	c-0.7,3.1-1.9,5.9-4,8.3c-0.9,1-1.9,1.4-3.2,1.1c-1.7-0.4-3.1-1.2-4.5-2.1c-0.8-0.5-0.9-1.1-0.2-1.8c2.4-2.5,3.9-5.6,4.8-8.9
	c0.2-0.8,0.4-1.7,0.5-2.6c0.1-2.4-1.7-3.8-4-3.3c-2.6,0.5-4.3,2.2-6.1,4c-5.2,5.2-8.9,11.3-12.6,17.5c-4.3,7.3-8.1,14.9-11.4,22.7
	c-0.3,0.7-0.6,1.5-0.9,2.2c-0.9,3.4-0.8,6.8,0.2,10.2c0.9,2.9,4.2,5.4,7.2,5.4c0.7,0,1.3-0.2,1.9-0.4c1.4-0.2,2.5-1,3.8-1.6
	c9.2-5.5,16.5-13.3,23.8-20.9c7.8-8.2,15-16.9,22.1-25.7c1.9-2.4,3.7-4.9,5.9-7c0.7-0.7,0.9-1.8,1.3-2.8c6.3-16,13.5-31.7,21.1-47.2
	c2.7-5.5,5.4-11,8.5-16.3c1.3-2.2,2.4-2.6,4.7-1.7c3.2,1.3,5.4,3.7,7.5,6.3c0.5,0.6,0.1,1.1-0.2,1.6c-3.4,6-6.7,12-10.1,18
	c-6.1,10.9-12.1,21.9-17.7,33.1c-4.5,9-8,18.4-11.2,27.9c-1.2,3.4-2.2,6.9-2.8,10.5c-0.2,0.3-0.2,0.6,0.1,0.8
	c0.3,0.2,0.5-0.1,0.7-0.3c5.6-14,12.5-27.3,20.7-39.9c1.7-2.6,3.6-5.2,6.1-7.2c1.5-1.2,2.5-1.3,4.2-0.4c5.2,2.8,8.8,10.3,7.8,16.1
	c-1.2,7.5-4,14.6-6.5,21.7c-1.2,3.4-2.3,6.8-3.2,10.2c-0.1,0.3-0.1,0.5-0.1,0.8c0,0.4-0.2,0.9,0.3,1.1c0.4,0.2,0.8,0,1.1-0.3
	c1.2-1.1,2.2-2.3,3.1-3.6c5.3-7.2,9.7-14.9,14.2-22.5c3.4-5.6,6.6-11.2,10.1-16.7c0.5-0.8,0.8-0.9,1.5-0.1c2.3,2.7,2.3,2.7,0.6,5.8
	c-4.6,8.2-8.7,16.6-13.1,24.8c-3.4,6.2-6.7,12.5-10.9,18.1c-2.7,3.6-4,3.7-7.6,1.1c-3.1-2.3-4.3-5.6-5.1-9.2
	c-1.4-6.5-0.6-12.9,0.7-19.2c1.3-6.8,3.4-13.3,5-20c0.1-0.4,0.4-0.9-0.1-1.1c-0.5-0.2-0.8,0.3-1.1,0.7c-3.4,4.1-6.2,8.6-8.7,13.3
	c-4.9,9-9.3,18.2-13.3,27.6c-2.4,5.6-4.8,11.2-7.1,16.8c-0.4,0.9-0.7,1.2-1.8,1c-1.7-0.3-3.4-0.6-5-1.1c-2.6-0.8-5.4-3.1-5.2-7
	c0.1-3.1,0.5-6.2,1.3-9.2c0.8-3.1,1.8-6.1,2.5-9.2c0.3-1.1,0.6-2.2,0.9-3.2c0.1-0.3,0.1-0.7,0.1-1.1c-0.3,0-0.5,0.3-0.8,0.5
	c-5.3,7.5-10.7,14.9-16.4,22c-4.3,5.4-8.8,10.6-13.7,15.4c-1.6,1.6-3.4,3.1-5.3,4.2c-2.2,1.1-4.4,2.4-6.9,2.8
	c-2.5,0.4-4.9,0.2-7.3-0.2c-3.3-0.6-6.3-1.8-9.1-3.7c-0.5-0.2-0.8-0.5-1.1-0.8c-0.3-0.3-0.7-0.6-1.1-0.9c-0.9-0.6-1.8-1.3-2.5-2.2
	c-1.7-2.1-3.3-4.2-4.1-6.9c-1-3.2-1-6.4-0.5-9.6c0.1-0.9,0.6-1.9,0.3-2.8C317.2,187.1,317,187.5,316.8,187.8z M305.3,141.1
	c-1.9-3.3-1.1-6.3,0.7-9.3c1.8-2.9,4.6-4,7.9-3.7c2.4,0.2,4,2.2,4,4.9c0,4-1.8,7.1-5.2,9.2c-1.1,0.4-2.2,0.9-3.4,0.8
	C307.6,143,306.2,142.5,305.3,141.1z M545.4,100.1c-0.8,2.1-1.8,4.2-3,6.1c-2.1,3.2-3.8,6.6-5.5,10c-3.9,7.7-7.7,15.3-11.9,22.8
	c-3.4,6.1-6.9,12.3-10.8,18.1c-2.1,3-4.1,6.1-6.5,8.9c-5.2,6.1-10.7,11.9-17.6,16c-1.3,0.8-2.8,1.4-4.2,2.2
	c-0.3,0.2-0.6,0.3-0.9,0.2c-1.6-0.6-2.8,0.1-4.1,0.9c-0.5,0-0.4-0.3-0.2-0.6c2-1.4,2-3.8,3-5.6c2-3.6,4.5-6.8,7-10
	c4.1-5.2,7.7-10.7,11.3-16.2c3.4-5.3,6.4-10.7,9.4-16.2c1.7-3.2,3.1-6.5,4.7-9.8c2-4,3.6-8.2,5.4-12.4c1.2-2.9,2.2-6,3-9.1
	c0.7-2.6,1.4-5.2,1.9-7.8c0.4-2.4,1.1-4.6,2.1-6.7c0.8-1.7,1.8-3.1,3.5-4c2-1,4-1,6,0.2c2.7,1.6,4.9,3.8,6.4,6.6
	C545,95.7,546,97.7,545.4,100.1z M461.2,116.5c-1.4-2.3-1.7-5.1-2.6-7.6c-0.2-0.5,0.1-1,0.3-1.5c0.3-0.9,0.4-1.8-0.1-2.7
	c-0.1-0.2-0.4-0.5-0.2-0.7c0.2-0.2,0.6-0.1,0.7,0.1c0.7,0.6,1.2,0.3,2,0c2-0.9,4-0.2,5.7,0.7c3,1.6,5.5,3.7,7.7,6.3
	c2.2,2.5,3.5,5.4,4.3,8.7c0.9,3.6-1.4,8.8-4.2,10.6c-1.6,1-4.3,1-5.9-0.2c-1.3-1-2.4-2-3.2-3.4c-0.8-1.4-1.7-2.8-2.1-4.4
	C462.9,120.5,462.1,118.5,461.2,116.5z M488.2,90.8c1.4,0.4,2.5,0.3,3.7-0.3c0.8-0.4,1.7,0,2.5,0.3c2.5,0.8,4.6,2.3,6.6,4
	c3,2.4,5,5.3,6.4,8.8c1.8,4.8,1.1,9.9-3.2,13.1c-1.5,1.1-4.1,1-5.8,0c-2.1-1.3-3.2-3.3-4.3-5.4c-2.2-4.3-3.8-8.8-5.3-13.4
	c-0.4-1.2-0.3-2.3-0.1-3.4C488.9,93.1,489.4,91.9,488.2,90.8z"/>
<path id="contorno" class="st1" d="M316.8,187.8c-1.9,3.1-4.3,5.8-6.5,8.6c-2.9,3.5-5.8,7-9.1,10.1c-1.1,0.8-2,1.8-3.1,2.5
	c-3.4,2.5-6.9,1.9-10.5,0.4c-1.8-0.8-3.3-1.9-4.3-3.5c-1.4-2-1.4-2-3.2-0.3c-0.9,0.8-1.7,1.8-2.9,2.3c-1.9,1-3.5,2.4-5.6,3
	c-1.7,0.5-3.4,0.8-5.2,0.9c-4.5,0.4-8.5-0.8-12.4-3c-1.1-0.6-2.1-1.4-3.2-2c-3.2-2.3-5.4-5.5-7.3-8.9c-1.4-2.8-2.5-5.7-3.4-8.7
	c-0.1-0.2-0.1-0.4-0.2-0.6c0-0.5,0-1-0.3-1.5c-0.2-0.9-0.3-1.9-0.5-2.9c-0.6-4.9-0.6-9.7-0.1-14.6c0.9-7.8,2.5-15.6,4.5-23.2
	c1.2-4.7,2.8-9.3,4.1-14c0.2-0.7,0.3-1.4,0.3-2.1c0-1.2-0.5-1.5-1.6-1c-0.6,0.3-1,0.8-1.6,1.2c-5.1,5.2-9.6,11-14.1,16.7
	c-8.2,10.6-15.8,21.5-23.4,32.4c-5.7,8.3-11.5,16.6-17.3,24.8c-0.5,0.7-1,0.8-1.9,0.6c-2.1-0.5-4-1.3-5.7-2.5
	c-3.8-2.7-5.4-6.4-4.8-11c0.4-3,1.4-5.7,2.4-8.5c1.2-3.6,2.7-7,4.1-10.5c0.5-1.4,1.2-2.7,1.7-4.1l0,0c1.7-3.7,3.2-7.5,4.8-11.2
	c2.2-5.1,4.4-10.2,6.7-15.3c1.2-2.7,2.4-5.4,3.6-8.1c1.5-2.7,2.6-5.6,3.9-8.4c1.5-3.4,3.1-6.8,4.6-10.3c2.3-5.2,4.6-10.4,6.8-15.7
	c1.7-4.1,3.4-8.3,4.9-12.5c0.8-2.1,1.6-4.2,2-6.3c0.1-0.7,0.5-1.5-0.3-2c-0.7-0.5-1.3-0.1-1.9,0.3c-0.3,0.2-0.7,0.3-0.9,0.6
	c-4.6,3.7-8.2,8.3-11.8,12.8c-2.4,3-4.8,6.1-7.1,9.2c-3.2,4-6.1,8.1-9,12.3c-4.8,6.9-9.7,13.7-14.4,20.7c-6.5,9.6-12.9,19.3-19.3,29
	c-9.6,14.5-19,29-28.2,43.7c-6.9,10.9-13.9,21.8-20.9,32.7c0,0.1-0.1,0.1-0.2,0.2c-0.5,0.5-0.8,1.2-1.1,1.7
	c-0.9,1.4-1.5,1.4-2.9,0.6c-1.9-1.2-3.7-2.7-5.5-3.9c-0.5-0.3-0.9-0.6-1.4-0.9l0,0c-1-0.9-2.2-1.5-3.1-2.5c-0.3-0.3-0.7-0.7-1-1
	c-2.1-2.5-1.9-5-0.2-7.6c0.6-1,1.3-1.9,1.8-2.9c2.9-4.3,6.4-8.1,9.6-12.1c6.6-8.2,12.9-16.7,19-25.3c4.6-6.6,8.9-13.4,13.1-20.3
	c1.3-2.1,2.4-4.2,3.6-6.3c0.7-1,1.3-2.1,1.9-3.2c0.5-1,1-2,1.5-3c1.2-2.5,2.5-5,3.7-7.5c2.4-4.8,4.4-9.7,6.6-14.6
	c1.1-2.2,1.8-4.5,2.7-6.8c1.1-2.9,2-5.8,3-8.8c0.6-1.7,1.2-3.5,1.7-5.3c1.3-4.6,2.5-9.3,3.5-14c0.3-1.3,0.6-2.5,0.7-3.8
	c0.4-2,0.5-4,1-5.9c0.4-0.8,0.2-1.7,0.3-2.5c0.4-2.2,0.6-4.5,0.8-6.7c0.1-1.5,0.2-3,0.3-4.4c0.2-1.9-0.6-3.2-2.3-4
	c-3.2-0.8-6.4-0.3-9.6,0.1c-1.9,0.2-3.8,0.9-5.7,1.3c-1.7,0.6-3.5,1.3-5.1,2c-1.8,0.8-3.6,1.7-5.4,2.7c-1.5,0.7-2.8,1.8-4.2,2.5
	c-4.2,2.6-8.1,5.4-12,8.3c-0.4,0.3-0.7,0.5-1.1,0.8c-3.3,2.5-6.5,5.1-9.7,7.8c-8,6.7-15.3,14.2-22.7,21.6c-1.2,1.2-2.3,2.5-3.4,3.8
	c-3.7,4.1-7.5,8.3-11,12.6s-6.9,8.6-10.1,13.1c-0.2,0.3-0.5,0.6-0.7,0.9c-2.7,3.5-5,7.3-7.3,11c-1,1.6-1.9,3.4-3,5
	c-1.2,2.5-2.6,4.9-3.6,7.5c-1,2.3-1.9,4.6-2.8,6.9c-0.3,1.1-0.7,2.1-1,3.2c-0.3,0.7-0.5,1.5-0.5,2.2c-0.1,1.2-0.5,2.4-0.5,3.7
	c-0.2,4,0.4,7.8,3.5,10.9c1.6,1.8,3.6,2.2,5.9,1.7c0.4-0.1,0.8-0.2,1.2-0.3c1.2-0.3,2,0.2,2.2,1.4c0.3,1.4-0.1,2.7-1,3.8
	c-0.8,1.2-1.9,1.3-3.2,1c-6.8-1.6-11.5-5.7-14-12.3c-1.7-4.5-2.7-9.2-3.6-14c-0.7-3.6-0.4-7.3-0.3-11c0.1-2.2,1-4.3,2-6.3
	c0-0.3,0.1-0.5,0.1-0.8c0.7-1.6,1.5-3.1,2.1-4.7c0.2-0.3,0.4-0.7,0.6-1c0.5-1.2,1.3-2.1,1.8-3.3l0,0c0.7-0.8,1-1.8,1.6-2.6
	c1.1-1.7,2.1-3.5,3.2-5.2c5.5-8.4,11.5-16.3,18-23.9c4.7-5.5,9.5-10.9,14.7-16c2.1-2.2,4.2-4.4,6.5-6.4c1.5-1.6,3-3.1,4.8-4.5
	c1-0.6,1.6-1.6,2.5-2.3c2.6-2.5,5.3-4.7,8.1-7c3.1-2.2,6-4.8,9.1-7.1c0.8-0.4,1.4-1,2.1-1.6c4.6-3.6,9.7-6.6,14.8-9.5
	c3.3-1.7,6.6-3.4,10-4.8c2.1-0.9,4.3-1.5,6.5-2.2c0.6-0.1,1.3,0,1.9-0.2c0.1,0,0.3-0.1,0.4-0.1c2.6-0.9,5.2-0.3,7.8-0.3
	c3.6,0.8,6.7,2.4,9.6,4.6c1.1,1,2.2,2.1,3.2,3.2c1.1,1.4,2.3,2.8,3.1,4.5c2.3,4.3,3.8,8.9,4.7,13.7c0.6,3.1,0.9,6.2,1.2,9.3
	c0.2,2-0.3,3.9-0.8,5.8c-2.4,7.6-5.6,14.9-8.8,22.2c-2.5,5.7-4.9,11.5-7.7,17.1c-1.5,2.4-2.5,5.1-3.7,7.6c-1.5,3.2-3.1,6.3-4.7,9.5
	c-0.1,0.3-0.2,0.5-0.3,0.8c-0.2,0.5-0.3,1-0.6,1.5c-0.2,0.3-0.4,0.5-0.6,0.7c-0.5,0.8-0.8,1.6-1.3,2.3c-0.2,0.3-0.3,0.5-0.6,0.8
	c-0.4,0.5-0.8,1.1-0.7,1.9c0.5,0.1,0.6-0.3,0.8-0.5c0.3-0.5,0.7-0.8,0.9-1.4c0.1-0.2,0.2-0.5,0.3-0.7c0.4-0.6,0.9-1.2,1.1-1.9
	c0.3-0.9,1.1-1.4,1.7-2.1c4.3-6.3,8.6-12.7,13-19c6.7-9.7,13.5-19.4,20.5-28.9c7.8-10.6,15.6-21.2,24.4-31c2.7-3.1,5.5-6.1,8.8-8.5
	c3.2-2.3,6.6-2.2,9.6,0.4c2,1.6,3.4,3.7,4.6,5.9c0.7,1.3,0.8,2.7,0.6,4.1c-0.5,4.2-1.8,8.2-3.1,12.2c-2.6,8.1-5.6,16.1-8.7,24
	c-1.8,4.7-3.8,9.3-5.8,13.9c-0.2,0.6-0.4,1.1-0.6,1.7c-0.7,1.8-1.6,3.6-2.3,5.4c-2.3,5.7-5,11.3-7.3,17.1c-2.5,6-5.2,11.9-7.9,17.8
	c-1.7,3.8-3.4,7.5-5.1,11.3c-0.2,0.5-0.5,0.9-0.7,1.3c-0.3,0.2-0.5,0.6-0.6,0.9c-0.2,0.5-0.7,1.1-0.1,1.4c0.4,0.2,1-0.4,1.3-0.8
	c0.2-0.3,0.5-0.6,0.7-1c3.6-4.9,7.3-9.7,10.9-14.6c7.3-9.9,14.6-19.8,22.2-29.5c5.4-6.9,10.9-13.7,17-19.9c1.6-1.6,3.3-3.3,5.2-4.6
	c1.3-0.9,2.6-1.8,4.1-2.3c0.7-0.2,1.4-0.3,2,0c5.8,2.8,9.3,6.7,9.2,13.9c0,2.4-0.6,4.8-1.2,7.1c-1.4,5.1-3.1,10.2-5,15.1
	c-1.1,3.5-2.4,6.9-3.5,10.3c-0.9,2.7-1.9,5.4-2.7,8.1c-1.9,6.9-3.4,13.9-2.8,21.1c0.3,4,1.2,7.9,3.9,11.1c1.2,1.4,2.6,2.3,4.2,3.2
	c0.3,0.2,0.6,0.4,0.8,0.5c3.9,2.6,8.1,3.8,12.8,2.3c1-0.3,2-0.8,2.8-1.4c2.1-1.5,4.1-3.1,5.6-5.1c0.4-0.6,0.9-1.1,0.8-1.9
	c-0.6-4.3,0.6-8.3,2-12.2c0.8-2.3,1.7-4.5,2.6-6.7c2.2-5.6,4.8-11,7.3-16.5c0.5-1.1,1-2.2,1.9-3.1c1.1-1.1,2.5-1.4,3.9-0.7
	c1.5,0.7,3,1.5,4.5,2.2c0.8,0.4,1.4,0.9,2,1.5c1.3,1.4,1.3,1.7,0.3,3.3c-3.5,5.4-6.2,11.2-9.1,17c-2.4,4.8-4.5,9.7-6.3,14.7
	c-0.5,1.6-1,3.2-0.4,4.9s2,2.2,3.5,1.4c2.3-1.3,4-3.3,5.9-5.1c10.2-10.4,19.8-21.3,28.6-33c3-4,5.4-8.4,8.4-12.3
	c3.6-4.7,7.5-9.2,12.5-12.7c2.4-1.6,4.9-3,7.9-2.8c2.4,0.2,4.5,1.3,6.5,2.6c2.5,1.7,4.6,3.8,6.3,6.3c1.5,2.3,1.9,4.7,1.3,7.3
	c-0.7,3.1-1.9,5.9-4,8.3c-0.9,1-1.9,1.4-3.2,1.1c-1.7-0.4-3.1-1.2-4.5-2.1c-0.8-0.5-0.9-1.1-0.2-1.8c2.4-2.5,3.9-5.6,4.8-8.9
	c0.2-0.8,0.4-1.7,0.5-2.6c0.1-2.4-1.7-3.8-4-3.3c-2.6,0.5-4.3,2.2-6.1,4c-5.2,5.2-8.9,11.3-12.6,17.5c-4.3,7.3-8.1,14.9-11.4,22.7
	c-0.3,0.7-0.6,1.5-0.9,2.2c-0.9,3.4-0.8,6.8,0.2,10.2c0.9,2.9,4.2,5.4,7.2,5.4c0.7,0,1.3-0.2,1.9-0.4c1.4-0.2,2.5-1,3.8-1.6
	c9.2-5.5,16.5-13.3,23.8-20.9c7.8-8.2,15-16.9,22.1-25.7c1.9-2.4,3.7-4.9,5.9-7c0.7-0.7,0.9-1.8,1.3-2.8c6.3-16,13.5-31.7,21.1-47.2
	c2.7-5.5,5.4-11,8.5-16.3c1.3-2.2,2.4-2.6,4.7-1.7c3.2,1.3,5.4,3.7,7.5,6.3c0.5,0.6,0.1,1.1-0.2,1.6c-3.4,6-6.7,12-10.1,18
	c-6.1,10.9-12.1,21.9-17.7,33.1c-4.5,9-8,18.4-11.2,27.9c-1.2,3.4-2.2,6.9-2.8,10.5c-0.2,0.3-0.2,0.6,0.1,0.8
	c0.3,0.2,0.5-0.1,0.7-0.3c5.6-14,12.5-27.3,20.7-39.9c1.7-2.6,3.6-5.2,6.1-7.2c1.5-1.2,2.5-1.3,4.2-0.4c5.2,2.8,8.8,10.3,7.8,16.1
	c-1.2,7.5-4,14.6-6.5,21.7c-1.2,3.4-2.3,6.8-3.2,10.2c-0.1,0.3-0.1,0.5-0.1,0.8c0,0.4-0.2,0.9,0.3,1.1c0.4,0.2,0.8,0,1.1-0.3
	c1.2-1.1,2.2-2.3,3.1-3.6c5.3-7.2,9.7-14.9,14.2-22.5c3.4-5.6,6.6-11.2,10.1-16.7c0.5-0.8,0.8-0.9,1.5-0.1c2.3,2.7,2.3,2.7,0.6,5.8
	c-4.6,8.2-8.7,16.6-13.1,24.8c-3.4,6.2-6.7,12.5-10.9,18.1c-2.7,3.6-4,3.7-7.6,1.1c-3.1-2.3-4.3-5.6-5.1-9.2
	c-1.4-6.5-0.6-12.9,0.7-19.2c1.3-6.8,3.4-13.3,5-20c0.1-0.4,0.4-0.9-0.1-1.1c-0.5-0.2-0.8,0.3-1.1,0.7c-3.4,4.1-6.2,8.6-8.7,13.3
	c-4.9,9-9.3,18.2-13.3,27.6c-2.4,5.6-4.8,11.2-7.1,16.8c-0.4,0.9-0.7,1.2-1.8,1c-1.7-0.3-3.4-0.6-5-1.1c-2.6-0.8-5.4-3.1-5.2-7
	c0.1-3.1,0.5-6.2,1.3-9.2c0.8-3.1,1.8-6.1,2.5-9.2c0.3-1.1,0.6-2.2,0.9-3.2c0.1-0.3,0.1-0.7,0.1-1.1c-0.3,0-0.5,0.3-0.8,0.5
	c-5.3,7.5-10.7,14.9-16.4,22c-4.3,5.4-8.8,10.6-13.7,15.4c-1.6,1.6-3.4,3.1-5.3,4.2c-2.2,1.1-4.4,2.4-6.9,2.8
	c-2.5,0.4-4.9,0.2-7.3-0.2c-3.3-0.6-6.3-1.8-9.1-3.7c-0.5-0.2-0.8-0.5-1.1-0.8c-0.3-0.3-0.7-0.6-1.1-0.9c-0.9-0.6-1.8-1.3-2.5-2.2
	c-1.7-2.1-3.3-4.2-4.1-6.9c-1-3.2-1-6.4-0.5-9.6c0.1-0.9,0.6-1.9,0.3-2.8C317.2,187.1,317,187.5,316.8,187.8z M305.3,141.1
	c-1.9-3.3-1.1-6.3,0.7-9.3c1.8-2.9,4.6-4,7.9-3.7c2.4,0.2,4,2.2,4,4.9c0,4-1.8,7.1-5.2,9.2c-1.1,0.4-2.2,0.9-3.4,0.8
	C307.6,143,306.2,142.5,305.3,141.1z M545.4,100.1c-0.8,2.1-1.8,4.2-3,6.1c-2.1,3.2-3.8,6.6-5.5,10c-3.9,7.7-7.7,15.3-11.9,22.8
	c-3.4,6.1-6.9,12.3-10.8,18.1c-2.1,3-4.1,6.1-6.5,8.9c-5.2,6.1-10.7,11.9-17.6,16c-1.3,0.8-2.8,1.4-4.2,2.2
	c-0.3,0.2-0.6,0.3-0.9,0.2c-1.6-0.6-2.8,0.1-4.1,0.9c-0.5,0-0.4-0.3-0.2-0.6c2-1.4,2-3.8,3-5.6c2-3.6,4.5-6.8,7-10
	c4.1-5.2,7.7-10.7,11.3-16.2c3.4-5.3,6.4-10.7,9.4-16.2c1.7-3.2,3.1-6.5,4.7-9.8c2-4,3.6-8.2,5.4-12.4c1.2-2.9,2.2-6,3-9.1
	c0.7-2.6,1.4-5.2,1.9-7.8c0.4-2.4,1.1-4.6,2.1-6.7c0.8-1.7,1.8-3.1,3.5-4c2-1,4-1,6,0.2c2.7,1.6,4.9,3.8,6.4,6.6
	C545,95.7,546,97.7,545.4,100.1z M461.2,116.5c-1.4-2.3-1.7-5.1-2.6-7.6c-0.2-0.5,0.1-1,0.3-1.5c0.3-0.9,0.4-1.8-0.1-2.7
	c-0.1-0.2-0.4-0.5-0.2-0.7c0.2-0.2,0.6-0.1,0.7,0.1c0.7,0.6,1.2,0.3,2,0c2-0.9,4-0.2,5.7,0.7c3,1.6,5.5,3.7,7.7,6.3
	c2.2,2.5,3.5,5.4,4.3,8.7c0.9,3.6-1.4,8.8-4.2,10.6c-1.6,1-4.3,1-5.9-0.2c-1.3-1-2.4-2-3.2-3.4c-0.8-1.4-1.7-2.8-2.1-4.4
	C462.9,120.5,462.1,118.5,461.2,116.5z M488.2,90.8c1.4,0.4,2.5,0.3,3.7-0.3c0.8-0.4,1.7,0,2.5,0.3c2.5,0.8,4.6,2.3,6.6,4
	c3,2.4,5,5.3,6.4,8.8c1.8,4.8,1.1,9.9-3.2,13.1c-1.5,1.1-4.1,1-5.8,0c-2.1-1.3-3.2-3.3-4.3-5.4c-2.2-4.3-3.8-8.8-5.3-13.4
	c-0.4-1.2-0.3-2.3-0.1-3.4C488.9,93.1,489.4,91.9,488.2,90.8z"/>
</svg>
